<svg width="420" height="230" viewBox="0 0 420 230"
     xmlns="http://www.w3.org/2000/svg" role="img" aria-label="Most used languages">
  <style>
    .label { font: 600 11px 'JetBrains Mono','Courier New',monospace; fill: #8b9098;
              letter-spacing: 3px; text-transform: uppercase; }
    .lang  { font: 400 12px 'JetBrains Mono','Courier New',monospace; fill: #e7e9ec;
              letter-spacing: 1px; }
    .pct   { font: 400 11px 'JetBrains Mono','Courier New',monospace; fill: #8b9098; }
  </style>
  <rect x="0.5" y="0.5" width="419" height="229"
        fill="#0d0e10" stroke="#3d3f45"/>
  <rect x="0" y="0" width="4" height="230" fill="#dcb27c"/>
  <text x="28" y="34" class="label">structure // languages</text>
  
  <text x="28" y="63" class="lang">TYPESCRIPT</text>
  <rect x="180" y="53" width="180" height="4" fill="#3d3f45"/>
  <rect x="180" y="53" width="165.6" height="4" fill="#dcb27c"/>
  <text x="406" y="63" class="pct" text-anchor="end">92.0%</text>
  <text x="28" y="93" class="lang">CSS</text>
  <rect x="180" y="83" width="180" height="4" fill="#3d3f45"/>
  <rect x="180" y="83" width="6.4" height="4" fill="#8b9098"/>
  <text x="406" y="93" class="pct" text-anchor="end">3.5%</text>
  <text x="28" y="123" class="lang">PYTHON</text>
  <rect x="180" y="113" width="180" height="4" fill="#3d3f45"/>
  <rect x="180" y="113" width="4.0" height="4" fill="#8b9098"/>
  <text x="406" y="123" class="pct" text-anchor="end">2.2%</text>
  <text x="28" y="153" class="lang">JAVASCRIPT</text>
  <rect x="180" y="143" width="180" height="4" fill="#3d3f45"/>
  <rect x="180" y="143" width="3.3" height="4" fill="#8b9098"/>
  <text x="406" y="153" class="pct" text-anchor="end">1.8%</text>
  <text x="28" y="183" class="lang">HTML</text>
  <rect x="180" y="173" width="180" height="4" fill="#3d3f45"/>
  <rect x="180" y="173" width="3.0" height="4" fill="#8b9098"/>
  <text x="406" y="183" class="pct" text-anchor="end">0.4%</text>
</svg>